<mxfile host="Electron" agent="Mozilla/5.0 (Windows NT 10.0; Win64; x64) AppleWebKit/537.36 (KHTML, like Gecko) draw.io/24.7.8 Chrome/128.0.6613.36 Electron/32.0.1 Safari/537.36" version="24.7.8">
  <diagram name="Page-1" id="2YBvvXClWsGukQMizWep">
    <mxGraphModel dx="982" dy="614" grid="1" gridSize="10" guides="1" tooltips="1" connect="1" arrows="1" fold="1" page="1" pageScale="1" pageWidth="850" pageHeight="1100" math="0" shadow="0">
      <root>
        <mxCell id="0" />
        <mxCell id="1" parent="0" />
        <mxCell id="8GYrxeTsjx4_WlC2TdFF-3" value="" style="edgeStyle=orthogonalEdgeStyle;rounded=0;orthogonalLoop=1;jettySize=auto;html=1;entryX=0.5;entryY=0;entryDx=0;entryDy=0;" parent="1" source="8GYrxeTsjx4_WlC2TdFF-1" target="99" edge="1">
          <mxGeometry relative="1" as="geometry" />
        </mxCell>
        <mxCell id="8GYrxeTsjx4_WlC2TdFF-1" value="MULAI" style="strokeWidth=2;html=1;shape=mxgraph.flowchart.start_1;whiteSpace=wrap;" parent="1" vertex="1">
          <mxGeometry x="275" y="10" width="100" height="50" as="geometry" />
        </mxCell>
        <mxCell id="17" style="edgeStyle=orthogonalEdgeStyle;rounded=0;html=1;entryX=0.5;entryY=0;entryDx=0;entryDy=0;exitX=0.5;exitY=1;exitDx=0;exitDy=0;endArrow=none;endFill=0;" parent="1" source="8GYrxeTsjx4_WlC2TdFF-2" edge="1">
          <mxGeometry relative="1" as="geometry">
            <mxPoint x="321.75" y="249" as="targetPoint" />
          </mxGeometry>
        </mxCell>
        <mxCell id="8GYrxeTsjx4_WlC2TdFF-2" value="Login" style="whiteSpace=wrap;html=1;strokeWidth=2;" parent="1" vertex="1">
          <mxGeometry x="265" y="170" width="120" height="60" as="geometry" />
        </mxCell>
        <mxCell id="8GYrxeTsjx4_WlC2TdFF-9" value="" style="edgeStyle=orthogonalEdgeStyle;rounded=0;orthogonalLoop=1;jettySize=auto;html=1;exitX=1;exitY=0.5;exitDx=0;exitDy=0;entryX=0;entryY=0.5;entryDx=0;entryDy=0;" parent="1" source="65" target="8GYrxeTsjx4_WlC2TdFF-8" edge="1">
          <mxGeometry relative="1" as="geometry" />
        </mxCell>
        <mxCell id="66" style="edgeStyle=orthogonalEdgeStyle;rounded=0;html=1;entryX=0;entryY=0.5;entryDx=0;entryDy=0;startArrow=none;startFill=0;endArrow=none;endFill=0;exitX=1;exitY=0.5;exitDx=0;exitDy=0;" parent="1" source="8GYrxeTsjx4_WlC2TdFF-4" target="65" edge="1">
          <mxGeometry relative="1" as="geometry">
            <mxPoint x="521.75" y="210" as="sourcePoint" />
          </mxGeometry>
        </mxCell>
        <mxCell id="76" style="edgeStyle=orthogonalEdgeStyle;rounded=0;html=1;entryX=0.5;entryY=0;entryDx=0;entryDy=0;startArrow=none;startFill=0;endArrow=none;endFill=0;exitX=0.5;exitY=1;exitDx=0;exitDy=0;" parent="1" source="8GYrxeTsjx4_WlC2TdFF-4" target="72" edge="1">
          <mxGeometry relative="1" as="geometry" />
        </mxCell>
        <mxCell id="8GYrxeTsjx4_WlC2TdFF-4" value="Sudah memiliki akun?" style="rhombus;whiteSpace=wrap;html=1;strokeWidth=2;" parent="1" vertex="1">
          <mxGeometry x="454.25" y="70" width="80" height="80" as="geometry" />
        </mxCell>
        <mxCell id="8GYrxeTsjx4_WlC2TdFF-18" style="edgeStyle=orthogonalEdgeStyle;rounded=0;orthogonalLoop=1;jettySize=auto;html=1;entryX=0.5;entryY=0;entryDx=0;entryDy=0;startArrow=none;exitX=0;exitY=0.5;exitDx=0;exitDy=0;" parent="1" source="8GYrxeTsjx4_WlC2TdFF-20" target="8GYrxeTsjx4_WlC2TdFF-10" edge="1">
          <mxGeometry relative="1" as="geometry">
            <mxPoint x="431.75" y="290" as="sourcePoint" />
            <mxPoint x="651.75" y="300" as="targetPoint" />
            <Array as="points">
              <mxPoint x="426.75" y="290" />
              <mxPoint x="321.75" y="290" />
            </Array>
          </mxGeometry>
        </mxCell>
        <mxCell id="8GYrxeTsjx4_WlC2TdFF-8" value="Registrasi" style="whiteSpace=wrap;html=1;strokeWidth=2;" parent="1" vertex="1">
          <mxGeometry x="650" y="80" width="120" height="60" as="geometry" />
        </mxCell>
        <mxCell id="22" style="edgeStyle=orthogonalEdgeStyle;rounded=0;html=1;entryX=0.5;entryY=0;entryDx=0;entryDy=0;endArrow=none;endFill=0;exitX=1;exitY=0.75;exitDx=0;exitDy=0;" parent="1" source="8GYrxeTsjx4_WlC2TdFF-10" target="21" edge="1">
          <mxGeometry relative="1" as="geometry" />
        </mxCell>
        <mxCell id="39" style="edgeStyle=orthogonalEdgeStyle;rounded=0;html=1;entryX=0;entryY=0.5;entryDx=0;entryDy=0;startArrow=none;startFill=0;endArrow=classic;endFill=1;exitX=1;exitY=0.25;exitDx=0;exitDy=0;" parent="1" source="8GYrxeTsjx4_WlC2TdFF-10" target="38" edge="1">
          <mxGeometry relative="1" as="geometry" />
        </mxCell>
        <mxCell id="52" style="edgeStyle=orthogonalEdgeStyle;rounded=0;html=1;entryX=0.5;entryY=0;entryDx=0;entryDy=0;startArrow=none;startFill=0;endArrow=classic;endFill=1;" parent="1" source="8GYrxeTsjx4_WlC2TdFF-10" target="4" edge="1">
          <mxGeometry relative="1" as="geometry" />
        </mxCell>
        <mxCell id="93" style="edgeStyle=orthogonalEdgeStyle;rounded=0;html=1;exitX=0;exitY=0.25;exitDx=0;exitDy=0;entryX=1;entryY=0.5;entryDx=0;entryDy=0;endArrow=none;endFill=0;" parent="1" source="8GYrxeTsjx4_WlC2TdFF-10" target="49" edge="1">
          <mxGeometry relative="1" as="geometry" />
        </mxCell>
        <mxCell id="8GYrxeTsjx4_WlC2TdFF-10" value="Dashboard" style="whiteSpace=wrap;html=1;strokeWidth=2;" parent="1" vertex="1">
          <mxGeometry x="261.75" y="320" width="120" height="60" as="geometry" />
        </mxCell>
        <mxCell id="18" style="edgeStyle=orthogonalEdgeStyle;rounded=0;html=1;entryX=0.5;entryY=0;entryDx=0;entryDy=0;endArrow=none;endFill=0;" parent="1" target="8GYrxeTsjx4_WlC2TdFF-10" edge="1">
          <mxGeometry relative="1" as="geometry">
            <mxPoint x="321.75" y="279" as="sourcePoint" />
          </mxGeometry>
        </mxCell>
        <mxCell id="uesrFVZmRoZ6uTbdgzzE-5" style="edgeStyle=orthogonalEdgeStyle;rounded=0;orthogonalLoop=1;jettySize=auto;html=1;entryX=0.5;entryY=0;entryDx=0;entryDy=0;exitX=0.5;exitY=1;exitDx=0;exitDy=0;" parent="1" source="8GYrxeTsjx4_WlC2TdFF-21" target="uesrFVZmRoZ6uTbdgzzE-4" edge="1">
          <mxGeometry relative="1" as="geometry" />
        </mxCell>
        <mxCell id="8GYrxeTsjx4_WlC2TdFF-21" value="Pilih Hafalan" style="whiteSpace=wrap;html=1;strokeWidth=2;" parent="1" vertex="1">
          <mxGeometry x="406.75" y="430" width="120" height="60" as="geometry" />
        </mxCell>
        <mxCell id="uesrFVZmRoZ6uTbdgzzE-28" value="" style="edgeStyle=orthogonalEdgeStyle;rounded=0;orthogonalLoop=1;jettySize=auto;html=1;" parent="1" source="8GYrxeTsjx4_WlC2TdFF-26" target="uesrFVZmRoZ6uTbdgzzE-27" edge="1">
          <mxGeometry relative="1" as="geometry" />
        </mxCell>
        <mxCell id="95" style="edgeStyle=orthogonalEdgeStyle;rounded=0;html=1;entryX=0.5;entryY=1;entryDx=0;entryDy=0;exitX=0.75;exitY=0;exitDx=0;exitDy=0;" parent="1" source="8GYrxeTsjx4_WlC2TdFF-26" target="91" edge="1">
          <mxGeometry relative="1" as="geometry" />
        </mxCell>
        <mxCell id="8GYrxeTsjx4_WlC2TdFF-26" value="Lihat nama pengguna pada Profil" style="rounded=0;whiteSpace=wrap;html=1;" parent="1" vertex="1">
          <mxGeometry x="67.75" y="630" width="134" height="60" as="geometry" />
        </mxCell>
        <mxCell id="29" style="edgeStyle=orthogonalEdgeStyle;rounded=0;html=1;startArrow=none;startFill=0;endArrow=none;endFill=0;exitX=0.5;exitY=1;exitDx=0;exitDy=0;" parent="1" source="uesrFVZmRoZ6uTbdgzzE-4" target="27" edge="1">
          <mxGeometry relative="1" as="geometry" />
        </mxCell>
        <mxCell id="uesrFVZmRoZ6uTbdgzzE-4" value="Rekam Hafalan" style="whiteSpace=wrap;html=1;strokeWidth=2;" parent="1" vertex="1">
          <mxGeometry x="406.75" y="510" width="120" height="60" as="geometry" />
        </mxCell>
        <mxCell id="uesrFVZmRoZ6uTbdgzzE-18" value="" style="edgeStyle=orthogonalEdgeStyle;rounded=0;orthogonalLoop=1;jettySize=auto;html=1;" parent="1" source="uesrFVZmRoZ6uTbdgzzE-11" target="uesrFVZmRoZ6uTbdgzzE-17" edge="1">
          <mxGeometry relative="1" as="geometry" />
        </mxCell>
        <mxCell id="uesrFVZmRoZ6uTbdgzzE-11" value="AI memproses rekaman&lt;br&gt;hafalan" style="whiteSpace=wrap;html=1;strokeWidth=2;" parent="1" vertex="1">
          <mxGeometry x="406.75" y="720" width="120" height="60" as="geometry" />
        </mxCell>
        <mxCell id="3A_A3IRJESycu6nVLtCw-4" value="" style="edgeStyle=orthogonalEdgeStyle;rounded=0;orthogonalLoop=1;jettySize=auto;html=1;entryX=0.5;entryY=0;entryDx=0;entryDy=0;" parent="1" source="uesrFVZmRoZ6uTbdgzzE-17" target="24" edge="1">
          <mxGeometry relative="1" as="geometry">
            <mxPoint x="466.79999999999995" y="910" as="targetPoint" />
          </mxGeometry>
        </mxCell>
        <mxCell id="uesrFVZmRoZ6uTbdgzzE-17" value="Hasil penilaian&amp;nbsp;&lt;div&gt;keluar berupa Nilai&lt;/div&gt;" style="shape=parallelogram;perimeter=parallelogramPerimeter;whiteSpace=wrap;html=1;fixedSize=1;strokeWidth=2;" parent="1" vertex="1">
          <mxGeometry x="376.75" y="820" width="180" height="70" as="geometry" />
        </mxCell>
        <mxCell id="uesrFVZmRoZ6uTbdgzzE-22" style="edgeStyle=orthogonalEdgeStyle;rounded=0;orthogonalLoop=1;jettySize=auto;html=1;entryX=0.5;entryY=0;entryDx=0;entryDy=0;" parent="1" source="uesrFVZmRoZ6uTbdgzzE-20" target="uesrFVZmRoZ6uTbdgzzE-11" edge="1">
          <mxGeometry relative="1" as="geometry" />
        </mxCell>
        <mxCell id="uesrFVZmRoZ6uTbdgzzE-20" value="Unggah &lt;br&gt;Rekaman&lt;br&gt;ke AI" style="shape=parallelogram;perimeter=parallelogramPerimeter;whiteSpace=wrap;html=1;fixedSize=1;strokeWidth=2;" parent="1" vertex="1">
          <mxGeometry x="406.75" y="620" width="120" height="60" as="geometry" />
        </mxCell>
        <mxCell id="67" style="edgeStyle=orthogonalEdgeStyle;rounded=0;html=1;exitX=0;exitY=0.5;exitDx=0;exitDy=0;entryX=1;entryY=0.5;entryDx=0;entryDy=0;startArrow=none;startFill=0;endArrow=none;endFill=0;" parent="1" source="uesrFVZmRoZ6uTbdgzzE-27" target="63" edge="1">
          <mxGeometry relative="1" as="geometry" />
        </mxCell>
        <mxCell id="71" style="edgeStyle=orthogonalEdgeStyle;rounded=0;html=1;startArrow=none;startFill=0;endArrow=none;endFill=0;" parent="1" source="uesrFVZmRoZ6uTbdgzzE-27" target="70" edge="1">
          <mxGeometry relative="1" as="geometry" />
        </mxCell>
        <mxCell id="uesrFVZmRoZ6uTbdgzzE-27" value="Ubah nama?" style="rhombus;whiteSpace=wrap;html=1;rounded=0;" parent="1" vertex="1">
          <mxGeometry x="89.75" y="720" width="90" height="80" as="geometry" />
        </mxCell>
        <mxCell id="56" style="edgeStyle=orthogonalEdgeStyle;rounded=0;html=1;entryX=0.5;entryY=0;entryDx=0;entryDy=0;startArrow=none;startFill=0;endArrow=none;endFill=0;" parent="1" source="uesrFVZmRoZ6uTbdgzzE-29" target="55" edge="1">
          <mxGeometry relative="1" as="geometry" />
        </mxCell>
        <mxCell id="uesrFVZmRoZ6uTbdgzzE-29" value="Ubah nama pengguna" style="whiteSpace=wrap;html=1;rounded=0;" parent="1" vertex="1">
          <mxGeometry x="74.75" y="870" width="120" height="60" as="geometry" />
        </mxCell>
        <mxCell id="7" style="edgeStyle=none;html=1;entryX=0.5;entryY=0;entryDx=0;entryDy=0;entryPerimeter=0;" parent="1" source="4" target="6" edge="1">
          <mxGeometry relative="1" as="geometry" />
        </mxCell>
        <mxCell id="4" value="Logout" style="whiteSpace=wrap;html=1;strokeWidth=2;" parent="1" vertex="1">
          <mxGeometry x="261.75" y="420" width="120" height="60" as="geometry" />
        </mxCell>
        <mxCell id="6" value="SELESAI" style="strokeWidth=2;html=1;shape=mxgraph.flowchart.start_1;whiteSpace=wrap;" parent="1" vertex="1">
          <mxGeometry x="271.75" y="510" width="100" height="60" as="geometry" />
        </mxCell>
        <mxCell id="8" value="Simpan nama pengguna yang baru" style="whiteSpace=wrap;html=1;rounded=0;" parent="1" vertex="1">
          <mxGeometry x="74.75" y="1000" width="120" height="60" as="geometry" />
        </mxCell>
        <mxCell id="13" style="edgeStyle=orthogonalEdgeStyle;rounded=0;orthogonalLoop=1;jettySize=auto;html=1;exitX=0;exitY=0.5;exitDx=0;exitDy=0;entryX=0;entryY=0.5;entryDx=0;entryDy=0;" parent="1" source="8" target="8GYrxeTsjx4_WlC2TdFF-26" edge="1">
          <mxGeometry relative="1" as="geometry">
            <mxPoint x="60" y="670" as="targetPoint" />
            <Array as="points">
              <mxPoint x="10" y="1030" />
              <mxPoint x="10" y="660" />
            </Array>
            <mxPoint x="199" y="895" as="sourcePoint" />
          </mxGeometry>
        </mxCell>
        <mxCell id="16" value="" style="edgeStyle=orthogonalEdgeStyle;rounded=0;orthogonalLoop=1;jettySize=auto;html=1;endArrow=none;exitX=0.5;exitY=1;exitDx=0;exitDy=0;" parent="1" source="8GYrxeTsjx4_WlC2TdFF-8" edge="1">
          <mxGeometry relative="1" as="geometry">
            <mxPoint x="636.75" y="240" as="sourcePoint" />
            <mxPoint x="581.75" y="290" as="targetPoint" />
            <Array as="points">
              <mxPoint x="701.75" y="290" />
            </Array>
          </mxGeometry>
        </mxCell>
        <mxCell id="8GYrxeTsjx4_WlC2TdFF-20" value="POST /api/auth/register" style="text;whiteSpace=wrap;html=1;" parent="1" vertex="1">
          <mxGeometry x="436.75" y="275" width="130" height="30" as="geometry" />
        </mxCell>
        <mxCell id="20" value="POST /api/auth/login" style="text;whiteSpace=wrap;html=1;" parent="1" vertex="1">
          <mxGeometry x="261.75" y="250" width="120" height="30" as="geometry" />
        </mxCell>
        <mxCell id="23" style="edgeStyle=orthogonalEdgeStyle;rounded=0;html=1;entryX=0.5;entryY=0;entryDx=0;entryDy=0;endArrow=classic;endFill=1;startArrow=none;startFill=0;" parent="1" source="21" target="8GYrxeTsjx4_WlC2TdFF-21" edge="1">
          <mxGeometry relative="1" as="geometry" />
        </mxCell>
        <mxCell id="21" value="GET /api/surah" style="text;whiteSpace=wrap;html=1;" parent="1" vertex="1">
          <mxGeometry x="421.75" y="380" width="90" height="30" as="geometry" />
        </mxCell>
        <mxCell id="XIirlzT-btTBQxpmXqKf-102" style="edgeStyle=orthogonalEdgeStyle;rounded=0;orthogonalLoop=1;jettySize=auto;html=1;entryX=0.75;entryY=1;entryDx=0;entryDy=0;endArrow=none;endFill=0;" edge="1" parent="1" source="24" target="77">
          <mxGeometry relative="1" as="geometry" />
        </mxCell>
        <mxCell id="XIirlzT-btTBQxpmXqKf-103" style="edgeStyle=orthogonalEdgeStyle;rounded=0;orthogonalLoop=1;jettySize=auto;html=1;entryX=0.5;entryY=0;entryDx=0;entryDy=0;endArrow=none;endFill=0;" edge="1" parent="1" source="24" target="68">
          <mxGeometry relative="1" as="geometry" />
        </mxCell>
        <mxCell id="24" value="Nilai &amp;gt;= 70" style="rhombus;whiteSpace=wrap;html=1;strokeWidth=2;" parent="1" vertex="1">
          <mxGeometry x="391.75" y="950" width="150" height="80" as="geometry" />
        </mxCell>
        <mxCell id="28" style="edgeStyle=orthogonalEdgeStyle;rounded=0;html=1;startArrow=none;startFill=0;endArrow=classic;endFill=1;" parent="1" target="uesrFVZmRoZ6uTbdgzzE-20" edge="1">
          <mxGeometry relative="1" as="geometry">
            <mxPoint x="466.75" y="600" as="sourcePoint" />
          </mxGeometry>
        </mxCell>
        <mxCell id="27" value="POST /api/recordings" style="text;whiteSpace=wrap;html=1;" parent="1" vertex="1">
          <mxGeometry x="406.75" y="580" width="120" height="30" as="geometry" />
        </mxCell>
        <mxCell id="83" value="" style="edgeStyle=none;html=1;" parent="1" source="30" target="82" edge="1">
          <mxGeometry relative="1" as="geometry" />
        </mxCell>
        <mxCell id="30" value="Status = Lulus" style="whiteSpace=wrap;html=1;strokeWidth=2;" parent="1" vertex="1">
          <mxGeometry x="641.75" y="910" width="120" height="60" as="geometry" />
        </mxCell>
        <mxCell id="85" style="edgeStyle=orthogonalEdgeStyle;html=1;entryX=1;entryY=0.5;entryDx=0;entryDy=0;rounded=0;exitX=1;exitY=0.5;exitDx=0;exitDy=0;" parent="1" source="32" target="82" edge="1">
          <mxGeometry relative="1" as="geometry">
            <Array as="points">
              <mxPoint x="802" y="1040" />
              <mxPoint x="802" y="800" />
            </Array>
          </mxGeometry>
        </mxCell>
        <mxCell id="32" value="Status =&amp;nbsp; Tidak Lulus" style="whiteSpace=wrap;html=1;strokeWidth=2;" parent="1" vertex="1">
          <mxGeometry x="641.75" y="1010" width="120" height="60" as="geometry" />
        </mxCell>
        <mxCell id="86" style="edgeStyle=orthogonalEdgeStyle;rounded=0;html=1;entryX=0.5;entryY=0;entryDx=0;entryDy=0;exitX=0.5;exitY=1;exitDx=0;exitDy=0;" parent="1" source="35" target="82" edge="1">
          <mxGeometry relative="1" as="geometry">
            <Array as="points">
              <mxPoint x="702" y="720" />
              <mxPoint x="702" y="720" />
            </Array>
          </mxGeometry>
        </mxCell>
        <mxCell id="35" value="Riwayat Rekaman Hafalan" style="whiteSpace=wrap;html=1;strokeWidth=2;" parent="1" vertex="1">
          <mxGeometry x="641.75" y="305" width="120" height="60" as="geometry" />
        </mxCell>
        <mxCell id="40" style="edgeStyle=orthogonalEdgeStyle;rounded=0;html=1;startArrow=none;startFill=0;endArrow=classic;endFill=1;entryX=0;entryY=0.5;entryDx=0;entryDy=0;" parent="1" source="38" target="35" edge="1">
          <mxGeometry relative="1" as="geometry" />
        </mxCell>
        <mxCell id="38" value="GET /api/recordings" style="text;whiteSpace=wrap;html=1;" parent="1" vertex="1">
          <mxGeometry x="436.75" y="320" width="115" height="30" as="geometry" />
        </mxCell>
        <mxCell id="94" style="edgeStyle=orthogonalEdgeStyle;rounded=0;html=1;entryX=0.25;entryY=0;entryDx=0;entryDy=0;" parent="1" source="49" target="8GYrxeTsjx4_WlC2TdFF-26" edge="1">
          <mxGeometry relative="1" as="geometry" />
        </mxCell>
        <mxCell id="49" value="GET /api/users/profile" style="text;whiteSpace=wrap;html=1;" parent="1" vertex="1">
          <mxGeometry x="35.75" y="320" width="130" height="30" as="geometry" />
        </mxCell>
        <mxCell id="57" style="edgeStyle=orthogonalEdgeStyle;rounded=0;html=1;entryX=0.5;entryY=0;entryDx=0;entryDy=0;startArrow=none;startFill=0;endArrow=classic;endFill=1;" parent="1" source="55" target="8" edge="1">
          <mxGeometry relative="1" as="geometry" />
        </mxCell>
        <mxCell id="55" value="PUT /api/users/profile" style="text;whiteSpace=wrap;html=1;" parent="1" vertex="1">
          <mxGeometry x="69.75" y="950" width="130" height="30" as="geometry" />
        </mxCell>
        <mxCell id="64" style="edgeStyle=orthogonalEdgeStyle;rounded=0;html=1;startArrow=none;startFill=0;endArrow=classic;endFill=1;entryX=0;entryY=0.5;entryDx=0;entryDy=0;" parent="1" source="63" target="8GYrxeTsjx4_WlC2TdFF-26" edge="1">
          <mxGeometry relative="1" as="geometry">
            <Array as="points">
              <mxPoint x="10" y="760" />
              <mxPoint x="10" y="660" />
            </Array>
            <mxPoint x="70" y="630" as="targetPoint" />
          </mxGeometry>
        </mxCell>
        <mxCell id="63" value="TIDAK" style="text;whiteSpace=wrap;html=1;" parent="1" vertex="1">
          <mxGeometry x="28.75" y="745" width="41" height="30" as="geometry" />
        </mxCell>
        <mxCell id="65" value="TIDAK" style="text;whiteSpace=wrap;html=1;" parent="1" vertex="1">
          <mxGeometry x="566.75" y="95" width="41" height="30" as="geometry" />
        </mxCell>
        <mxCell id="90" style="edgeStyle=orthogonalEdgeStyle;rounded=0;html=1;entryX=0;entryY=0.5;entryDx=0;entryDy=0;" parent="1" source="68" target="32" edge="1">
          <mxGeometry relative="1" as="geometry" />
        </mxCell>
        <mxCell id="68" value="TIDAK" style="text;whiteSpace=wrap;html=1;" parent="1" vertex="1">
          <mxGeometry x="557" y="1025" width="41" height="30" as="geometry" />
        </mxCell>
        <mxCell id="79" style="edgeStyle=orthogonalEdgeStyle;rounded=0;html=1;entryX=0.5;entryY=0;entryDx=0;entryDy=0;startArrow=none;startFill=0;endArrow=classic;endFill=1;" parent="1" source="70" target="uesrFVZmRoZ6uTbdgzzE-29" edge="1">
          <mxGeometry relative="1" as="geometry" />
        </mxCell>
        <mxCell id="70" value="YA" style="text;whiteSpace=wrap;html=1;" parent="1" vertex="1">
          <mxGeometry x="123.75" y="810" width="22" height="30" as="geometry" />
        </mxCell>
        <mxCell id="97" style="edgeStyle=orthogonalEdgeStyle;rounded=0;html=1;endArrow=classic;endFill=1;entryX=1;entryY=0.5;entryDx=0;entryDy=0;" parent="1" source="72" target="8GYrxeTsjx4_WlC2TdFF-2" edge="1">
          <mxGeometry relative="1" as="geometry">
            <mxPoint x="320" y="105" as="targetPoint" />
            <Array as="points">
              <mxPoint x="494" y="200" />
            </Array>
          </mxGeometry>
        </mxCell>
        <mxCell id="72" value="YA" style="text;whiteSpace=wrap;html=1;" parent="1" vertex="1">
          <mxGeometry x="484" y="160" width="20.5" height="30" as="geometry" />
        </mxCell>
        <mxCell id="XIirlzT-btTBQxpmXqKf-101" style="edgeStyle=orthogonalEdgeStyle;rounded=0;orthogonalLoop=1;jettySize=auto;html=1;entryX=0;entryY=0.5;entryDx=0;entryDy=0;" edge="1" parent="1" source="77" target="30">
          <mxGeometry relative="1" as="geometry" />
        </mxCell>
        <mxCell id="77" value="YA" style="text;whiteSpace=wrap;html=1;" parent="1" vertex="1">
          <mxGeometry x="562" y="925" width="20.5" height="30" as="geometry" />
        </mxCell>
        <mxCell id="87" style="edgeStyle=orthogonalEdgeStyle;rounded=0;html=1;entryX=1;entryY=0.5;entryDx=0;entryDy=0;" parent="1" source="82" target="8GYrxeTsjx4_WlC2TdFF-10" edge="1">
          <mxGeometry relative="1" as="geometry">
            <Array as="points">
              <mxPoint x="571.75" y="800" />
              <mxPoint x="571.75" y="350" />
            </Array>
          </mxGeometry>
        </mxCell>
        <mxCell id="82" value="Kembali ke Dashboard" style="whiteSpace=wrap;html=1;strokeWidth=2;" parent="1" vertex="1">
          <mxGeometry x="641.75" y="770" width="120" height="60" as="geometry" />
        </mxCell>
        <mxCell id="96" style="edgeStyle=orthogonalEdgeStyle;rounded=0;html=1;entryX=0;entryY=0.75;entryDx=0;entryDy=0;exitX=0.5;exitY=0;exitDx=0;exitDy=0;" parent="1" source="91" target="8GYrxeTsjx4_WlC2TdFF-10" edge="1">
          <mxGeometry relative="1" as="geometry" />
        </mxCell>
        <mxCell id="91" value="Kembali ke Dashboard" style="whiteSpace=wrap;html=1;strokeWidth=2;" parent="1" vertex="1">
          <mxGeometry x="122.75" y="420" width="90" height="60" as="geometry" />
        </mxCell>
        <mxCell id="101" style="edgeStyle=orthogonalEdgeStyle;rounded=0;html=1;entryX=0;entryY=0.5;entryDx=0;entryDy=0;endArrow=classic;endFill=1;" parent="1" source="99" target="8GYrxeTsjx4_WlC2TdFF-4" edge="1">
          <mxGeometry relative="1" as="geometry" />
        </mxCell>
        <mxCell id="99" value="Halaman Awal" style="whiteSpace=wrap;html=1;strokeWidth=2;" parent="1" vertex="1">
          <mxGeometry x="265" y="80" width="120" height="60" as="geometry" />
        </mxCell>
      </root>
    </mxGraphModel>
  </diagram>
</mxfile>
